<?xml version="1.0" encoding="utf-8"?>
<!-- Generator: Adobe Illustrator 27.3.1, SVG Export Plug-In . SVG Version: 6.00 Build 0)  -->
<svg version="1.1" id="Calque_1" xmlns="http://www.w3.org/2000/svg" xmlns:xlink="http://www.w3.org/1999/xlink" x="0px" y="0px"
	 viewBox="0 0 432.3 165" style="enable-background:new 0 0 432.3 165;" xml:space="preserve">
<style type="text/css">
	.st0{fill:url(#SVGID_1_);}
	.st1{fill:url(#SVGID_00000044892852815759892630000001302841947294453688_);}
	.st2{fill:url(#SVGID_00000150065602142821408380000018184080798929055125_);}
	.st3{fill:url(#SVGID_00000111167523725182292160000017230201432680531887_);}
	.st4{fill:url(#SVGID_00000096753591473245881840000007296044813981516444_);}
	.st5{fill:url(#SVGID_00000142891883267389309510000004521779949576825268_);}
	.st6{fill:#FFFFFF;}
	.st7{fill:#54B17B;}
</style>
<g>
	<linearGradient id="SVGID_1_" gradientUnits="userSpaceOnUse" x1="106.663" y1="225.534" x2="357.1459" y2="-24.949">
		<stop  offset="7.179065e-03" style="stop-color:#DFD900"/>
		<stop  offset="0.9949" style="stop-color:#54B17B"/>
	</linearGradient>
	<path class="st0" d="M268.4,26c-2.7,0.1-5.1,1-7.1,2.8c-2,1.8-3.1,4-3.3,6.7v56.8c0.4,3,1.6,5.4,3.5,7.1c1.9,1.7,4.2,2.5,6.9,2.5
		c3-0.2,5.4-1.3,7.2-3.1c1.8-1.9,2.7-4.2,2.7-7.1V36.2c-0.2-2.8-1.2-5.2-3.1-7.2C273.4,27,271.1,26,268.4,26z"/>
	
		<linearGradient id="SVGID_00000065064029546424369760000013517338810761279363_" gradientUnits="userSpaceOnUse" x1="129.1678" y1="248.0388" x2="379.6508" y2="-2.4441">
		<stop  offset="7.179065e-03" style="stop-color:#DFD900"/>
		<stop  offset="0.9949" style="stop-color:#54B17B"/>
	</linearGradient>
	<path style="fill:url(#SVGID_00000065064029546424369760000013517338810761279363_);" d="M352.6,11.6c-3.4-3.3-7.5-5.9-12.1-7.7
		c-4.6-1.8-9.4-2.7-14.4-2.7c-5.6,0-10.8,1-15.4,3c-4.6,2-8.6,4.7-12,8.2c-3.4,3.4-6.1,7.5-8,12.1c-1.9,4.6-2.9,9.5-2.9,14.7v25.6
		c0,5.2,1,10.1,3.1,14.6c2.1,4.5,4.9,8.4,8.3,11.7c3.5,3.3,7.5,5.9,12.1,7.7c4.6,1.8,9.5,2.7,14.7,2.7c5.4,0,10.5-1,15.1-3
		c4.6-2,8.6-4.7,12-8.2c3.4-3.4,6.1-7.5,8-12.1c1.9-4.6,2.9-9.5,2.9-14.7V37.9c0-5.2-1-10.1-3.1-14.6
		C358.8,18.8,356,14.9,352.6,11.6z M343.5,64.2c0,2.3-0.5,4.5-1.4,6.6c-0.9,2.1-2.2,3.9-3.8,5.3c-1.6,1.5-3.4,2.6-5.5,3.5
		c-2.1,0.9-4.3,1.3-6.6,1.3c-2.7,0-5.2-0.5-7.3-1.4c-2.1-0.9-4-2.2-5.6-3.8c-1.6-1.6-2.9-3.4-3.8-5.6c-0.9-2.1-1.3-4.4-1.2-6.8V38.3
		c0-2.3,0.5-4.5,1.4-6.6c0.9-2.1,2.2-3.9,3.8-5.3c1.6-1.5,3.4-2.6,5.5-3.5c2.1-0.9,4.4-1.3,6.9-1.3s4.8,0.5,7,1.4
		c2.1,0.9,4,2.2,5.6,3.8c1.6,1.6,2.9,3.4,3.8,5.6c0.9,2.1,1.3,4.4,1.3,6.8L343.5,64.2z"/>
	
		<linearGradient id="SVGID_00000067932486246924528730000012596293095746529694_" gradientUnits="userSpaceOnUse" x1="80.7351" y1="199.6061" x2="331.218" y2="-50.8769">
		<stop  offset="7.179065e-03" style="stop-color:#DFD900"/>
		<stop  offset="0.9949" style="stop-color:#54B17B"/>
	</linearGradient>
	<path style="fill:url(#SVGID_00000067932486246924528730000012596293095746529694_);" d="M268.4,2c-2.7,0-5.1,0.9-7.1,2.8
		c-2,1.9-3.1,4.2-3.2,6.9c0,3.3,1,5.9,2.9,7.8c1.9,1.8,4.4,2.8,7.4,2.9c2.7,0,5-1,7-3.1c1.9-2,2.9-4.4,2.9-7.1c0-2.7-1-5.1-2.9-7.1
		C273.4,3,271.1,2,268.4,2z"/>
	
		<linearGradient id="SVGID_00000143612805896143794540000001215165733195910575_" gradientUnits="userSpaceOnUse" x1="-14.7277" y1="104.1433" x2="235.7553" y2="-146.3396">
		<stop  offset="7.179065e-03" style="stop-color:#DFD900"/>
		<stop  offset="0.9949" style="stop-color:#54B17B"/>
	</linearGradient>
	<path style="fill:url(#SVGID_00000143612805896143794540000001215165733195910575_);" d="M73.1,57.9c3.3-5.7,4.9-12,4.9-18.9
		c0-5.2-1-10.2-3-14.8c-2-4.7-4.7-8.7-8.2-12.2c-3.4-3.4-7.5-6.2-12.2-8.2c-4.7-2-9.6-3-14.8-3H12.5c-2.9,0-5.4,1-7.4,3.1
		C3,6,2,8.5,2,11.4v79.5c0,2.9,1,5.4,3.1,7.4c2,2,4.5,3.1,7.4,3.1c2.9,0,5.4-1,7.4-3.1c2-2,3.1-4.5,3.1-7.4V77.1h12.7l21.3,21
		c2.1,2.1,4.6,3.1,7.5,3.1c2.9,0,5.3-1,7.2-3.1c2.1-2.1,3.1-4.6,3.1-7.5c0-2.9-1-5.4-3-7.5L60,71.4C65.4,68.1,69.8,63.6,73.1,57.9z
		 M55.7,45.6c-0.9,2-2.1,3.8-3.7,5.4c-1.6,1.6-3.4,2.8-5.5,3.7c-2.1,0.9-4.3,1.3-6.6,1.3H23V21.9h16.9c2.3,0,4.5,0.4,6.6,1.3
		c2.1,0.9,3.9,2.1,5.5,3.7c1.6,1.6,2.8,3.4,3.7,5.5c0.9,2.1,1.3,4.3,1.3,6.6C57,41.4,56.6,43.6,55.7,45.6z"/>
	
		<linearGradient id="SVGID_00000176748384564504471730000009269777522199388326_" gradientUnits="userSpaceOnUse" x1="67.8974" y1="186.7684" x2="318.3804" y2="-63.7145">
		<stop  offset="7.179065e-03" style="stop-color:#DFD900"/>
		<stop  offset="0.9949" style="stop-color:#54B17B"/>
	</linearGradient>
	<path style="fill:url(#SVGID_00000176748384564504471730000009269777522199388326_);" d="M237.6,11.5c-3.3-3.2-7.1-5.8-11.4-7.6
		c-4.3-1.8-8.8-2.7-13.4-2.7H184c-3,0-5.6,1.1-7.6,3.3c-2,2.2-3.1,4.7-3.1,7.4v78.9c0,3,1.1,5.6,3.2,7.6c2.1,2,4.6,3.1,7.4,3.1h28.7
		c4.8,0,9.4-1,13.7-2.9c4.3-1.9,8.1-4.5,11.4-7.8c3.2-3.3,5.8-7.1,7.8-11.4c1.9-4.3,2.9-8.8,2.9-13.5v-29c0-5-1-9.7-3-14
		C243.5,18.5,240.9,14.8,237.6,11.5z M227.1,65.8c0,2-0.4,3.8-1.1,5.6c-0.7,1.7-1.8,3.2-3.1,4.5c-1.3,1.3-2.8,2.3-4.6,3.1
		c-1.8,0.7-3.7,1.1-5.6,1.1h-18.2V22.5h18.2c2,0,3.9,0.4,5.6,1.1c1.8,0.7,3.3,1.8,4.6,3.1c1.3,1.3,2.3,2.8,3.1,4.5
		c0.7,1.7,1.1,3.6,1.1,5.6V65.8z"/>
	
		<linearGradient id="SVGID_00000122684756652841177460000014835638645116876930_" gradientUnits="userSpaceOnUse" x1="32.6201" y1="151.4911" x2="283.1031" y2="-98.9918">
		<stop  offset="7.179065e-03" style="stop-color:#DFD900"/>
		<stop  offset="0.9949" style="stop-color:#54B17B"/>
	</linearGradient>
	<path style="fill:url(#SVGID_00000122684756652841177460000014835638645116876930_);" d="M151.6,11.6c-3.4-3.3-7.5-5.9-12.1-7.7
		c-4.6-1.8-9.4-2.7-14.4-2.7c-5.4,0-10.5,1-15.1,3c-4.6,2-8.6,4.7-12,8.2c-3.4,3.4-6.1,7.5-8,12.1c-1.9,4.6-3,9.5-3.1,14.7v52.1
		c0,2.7,1,5,3.1,6.9c2.1,1.9,4.5,2.8,7.2,2.8c2.7,0,5.1-1,7.2-3.1c2.1-2,3.1-4.4,3.1-7.1V72.8h35v18.3c0,2.8,1,5.2,3.1,7
		c2,1.8,4.5,2.7,7.3,2.7c2.8-0.1,5.2-1.1,7.1-3.1c1.9-2,2.9-4.3,2.9-7.1V37.9c0-5.2-1-10.1-3.1-14.6C157.8,18.8,155,14.9,151.6,11.6
		z M142.6,52.5h-35V38.3c0-2.3,0.5-4.5,1.4-6.6c0.9-2.1,2.2-3.9,3.8-5.3c1.6-1.5,3.4-2.6,5.5-3.5c2.1-0.9,4.3-1.3,6.6-1.3
		c2.5,0,4.8,0.5,7,1.4c2.1,0.9,4,2.2,5.6,3.8c1.6,1.6,2.9,3.4,3.8,5.6c0.9,2.1,1.3,4.4,1.3,6.8V52.5z"/>
</g>
<g>
	<path class="st6" d="M30.4,153.7c1.6,0,2.9,0.6,4,1.7c1.1,1.1,1.6,2.4,1.6,3.9c0,1.6-0.5,3-1.6,4.1c-1.1,1.1-2.4,1.6-4,1.6h-24
		c-1.5,0-2.8-0.5-3.9-1.6c-1.1-1.1-1.7-2.4-1.7-4.1v-42.2c0-1.5,0.5-2.8,1.6-3.9c1.1-1.2,2.4-1.8,4-1.8h24c1.6,0,2.9,0.6,4,1.7
		c1.1,1.1,1.6,2.5,1.6,4c0,1.6-0.5,3-1.6,4c-1.1,1.1-2.4,1.6-4,1.6H12v9.6h12.8c1.5,0,2.8,0.6,3.9,1.7c1.1,1.1,1.7,2.5,1.7,4
		c0,1.6-0.6,2.9-1.7,4c-1.1,1.1-2.4,1.6-3.9,1.6H12v10.1H30.4z M34.6,96.6c0.4,1.6,0.2,3.1-0.5,4.4c-0.8,1.3-1.9,2.2-3.4,2.6
		l-10.1,2.8c-1.5,0.4-3,0.2-4.3-0.6c-1.4-0.8-2.3-2-2.6-3.6c-0.4-1.5-0.2-2.9,0.5-4.2c0.8-1.3,1.9-2.2,3.5-2.6l10.1-2.7
		c1.4-0.4,2.8-0.2,4.2,0.5C33.4,93.9,34.2,95.1,34.6,96.6z"/>
	<path class="st6" d="M60.5,111.4c2.5,0,4.9,0.5,7.2,1.5c2.3,1,4.4,2.3,6.1,4.1c1.8,1.7,3.2,3.7,4.2,6c1.1,2.3,1.6,4.8,1.6,7.5V146
		c0,2.5-0.5,4.9-1.6,7.2c-1,2.3-2.4,4.3-4.2,6.1c-1.7,1.8-3.8,3.2-6.1,4.2c-2.3,1-4.8,1.6-7.3,1.6H45.1c-1.5,0-2.8-0.5-4-1.6
		c-1.1-1.1-1.7-2.4-1.7-4.1v-42.2c0-1.5,0.5-2.8,1.6-3.9s2.4-1.8,4.1-1.8H60.5z M50.7,122.8v30.8h9.7c1.1,0,2.1-0.2,3-0.6
		c1-0.4,1.8-0.9,2.5-1.6c0.7-0.7,1.2-1.5,1.6-2.4c0.4-0.9,0.6-1.9,0.6-3v-15.5c0-1.1-0.2-2.1-0.6-3c-0.4-0.9-0.9-1.7-1.6-2.4
		c-0.7-0.7-1.5-1.2-2.5-1.6c-1-0.4-2-0.6-3-0.6H50.7z"/>
	<path class="st6" d="M104.9,164.8c-2.9,0-5.6-0.5-8.1-1.6c-2.5-1.1-4.6-2.5-6.4-4.4c-1.8-1.8-3.2-4-4.3-6.5c-1-2.5-1.6-5.1-1.6-7.9
		v-27.8c0-1.5,0.6-2.7,1.7-3.7c1.1-1,2.4-1.5,3.9-1.5c1.5,0,2.7,0.5,3.9,1.6c1.1,1.1,1.7,2.4,1.7,3.8v28c0,1.2,0.3,2.4,0.8,3.5
		c0.5,1.1,1.2,2.1,2,2.9c0.8,0.8,1.8,1.4,2.9,1.9c1.1,0.5,2.3,0.7,3.5,0.7c1.3,0,2.6-0.3,3.7-0.8c1.1-0.5,2.2-1.2,3-2
		c0.9-0.8,1.5-1.8,2-3c0.5-1.1,0.7-2.4,0.7-3.6v-27.8c0-1.5,0.5-2.8,1.6-3.7c1.1-1,2.4-1.5,3.9-1.5c1.5,0.1,2.8,0.6,3.8,1.7
		c1,1.1,1.6,2.3,1.6,3.8v28.3c0,2.8-0.6,5.4-1.7,7.8c-1.1,2.4-2.6,4.5-4.4,6.2s-4,3.1-6.5,4.1C110.2,164.3,107.6,164.8,104.9,164.8z
		"/>
	<path class="st6" d="M163.6,146.7c1.5,0,2.8,0.5,3.9,1.6c1.1,1.1,1.7,2.4,1.7,4.1c0,0.6-0.1,1.1-0.3,1.6c-0.2,0.5-0.4,1-0.7,1.6
		c-1.6,2.9-3.9,5.1-6.9,6.8c-3,1.7-6.3,2.6-10.1,2.6h-0.8c-2.8,0-5.4-0.5-7.9-1.5c-2.5-1-4.6-2.3-6.5-4.1c-1.8-1.8-3.3-3.8-4.4-6.2
		c-1.1-2.4-1.7-5-1.7-7.8v-13.7c0-2.8,0.5-5.4,1.6-7.9c1-2.5,2.5-4.6,4.3-6.5c1.8-1.8,4-3.3,6.4-4.4c2.5-1.1,5.2-1.6,8.2-1.6
		c1.6,0,3.1,0.1,4.4,0.4c2.3,0.4,4.4,1.1,6.4,2.3c3,1.7,5.3,4,7,7c0.2,0.4,0.4,0.9,0.6,1.4c0.2,0.6,0.3,1.1,0.3,1.6
		c0,1.6-0.6,2.9-1.7,4c-1.1,1.1-2.5,1.7-4,1.7c-1.2,0-2.2-0.3-3-1c-0.8-0.6-1.5-1.4-2.1-2.4c-0.7-1.1-1.6-2-2.8-2.7
		c-1-0.6-2.2-1-3.7-1.4c-0.4-0.1-1-0.1-1.5-0.1c-1.3,0-2.6,0.2-3.7,0.7c-1.1,0.5-2.1,1.1-2.9,1.9c-0.8,0.8-1.5,1.7-2,2.9
		c-0.5,1.1-0.8,2.3-0.8,3.5v13.4c-0.1,1.3,0.2,2.5,0.6,3.6c0.5,1.1,1.1,2.1,2,3c0.9,0.8,1.9,1.5,3,2c1.1,0.5,2.4,0.8,3.9,0.8h1
		c1.7-0.3,3-0.8,4-1.4c1.1-0.7,2-1.6,2.8-2.7c0.6-1,1.3-1.7,1.9-2.3S162.1,146.7,163.6,146.7z"/>
	<path class="st6" d="M194.2,111.4c2.7,0,5.3,0.5,7.7,1.5c2.5,1,4.6,2.3,6.5,4.1c1.8,1.8,3.3,3.8,4.4,6.2c1.1,2.4,1.7,5,1.7,7.8
		v28.3c0,1.5-0.5,2.7-1.6,3.8c-1,1.1-2.3,1.6-3.8,1.7c-1.5,0-2.8-0.5-3.9-1.5c-1.1-1-1.6-2.2-1.6-3.7v-9.8h-18.7v9.6
		c0,1.5-0.6,2.7-1.7,3.8c-1.1,1.1-2.4,1.6-3.9,1.6c-1.5,0-2.7-0.5-3.9-1.5c-1.1-1-1.7-2.2-1.7-3.7v-27.8c0.1-2.8,0.6-5.4,1.6-7.9
		c1-2.5,2.5-4.6,4.3-6.5c1.8-1.8,4-3.3,6.4-4.4C188.6,111.9,191.3,111.4,194.2,111.4z M203.6,131.7c0-1.3-0.2-2.5-0.7-3.6
		c-0.5-1.1-1.1-2.1-2-3c-0.9-0.8-1.9-1.5-3-2c-1.1-0.5-2.4-0.8-3.7-0.8c-1.2,0-2.4,0.2-3.5,0.7c-1.1,0.5-2.1,1.1-2.9,1.9
		c-0.8,0.8-1.5,1.7-2,2.9c-0.5,1.1-0.8,2.3-0.8,3.5v7.5h18.7V131.7z"/>
	<path class="st6" d="M251.5,111.4c1.6,0,3,0.6,4.1,1.7c1.1,1.1,1.6,2.5,1.6,4c0,1.6-0.5,3-1.6,4c-1.1,1.1-2.4,1.6-4.1,1.6h-9.4
		v36.6c0,1.6-0.5,3-1.6,4.1c-1.1,1.1-2.4,1.6-4,1.6c-1.6,0-3-0.5-4-1.6c-1.1-1.1-1.6-2.4-1.6-4.1v-36.6h-9.5c-1.6,0-2.9-0.5-4-1.6
		c-1.1-1.1-1.6-2.4-1.6-4c0-1.6,0.5-2.9,1.6-4c1.1-1.1,2.4-1.7,4-1.7H251.5z"/>
	<path class="st6" d="M267,111.5c1.5,0,2.8,0.6,3.9,1.7c1.1,1.1,1.6,2.4,1.6,3.9v42.3c0,1.6-0.5,2.9-1.6,4c-1.1,1.1-2.4,1.6-3.9,1.6
		c-1.6,0-3-0.5-4.1-1.6c-1.1-1.1-1.6-2.4-1.6-4v-42.3c0-1.5,0.5-2.8,1.6-3.9C264.1,112.1,265.4,111.5,267,111.5z"/>
	<path class="st6" d="M298.3,165c-2.8,0-5.4-0.5-7.9-1.5c-2.5-1-4.6-2.3-6.5-4.1c-1.8-1.8-3.3-3.8-4.4-6.2c-1.1-2.4-1.7-5-1.7-7.8
		v-13.7c0-2.8,0.5-5.4,1.6-7.9c1-2.5,2.5-4.6,4.3-6.5c1.8-1.8,4-3.3,6.4-4.4c2.5-1.1,5.2-1.6,8.2-1.6c2.7,0,5.3,0.5,7.7,1.5
		c2.5,1,4.6,2.3,6.5,4.1c1.8,1.8,3.3,3.8,4.4,6.2c1.1,2.4,1.7,5,1.7,7.8v13.7c0,2.8-0.5,5.4-1.6,7.9c-1,2.5-2.5,4.6-4.3,6.5
		c-1.8,1.8-4,3.3-6.4,4.4C303.9,164.5,301.2,165,298.3,165z M307.7,131.7c0-1.3-0.2-2.5-0.7-3.6c-0.5-1.1-1.1-2.1-2-3
		c-0.9-0.8-1.9-1.5-3-2c-1.1-0.5-2.4-0.8-3.7-0.8c-1.3,0-2.6,0.2-3.7,0.7c-1.1,0.5-2.1,1.1-2.9,1.9c-0.8,0.8-1.5,1.7-2,2.9
		c-0.5,1.1-0.8,2.3-0.8,3.5v13.4c-0.1,1.3,0.2,2.5,0.6,3.6c0.5,1.1,1.1,2.1,2,3c0.9,0.8,1.9,1.5,3,2c1.1,0.5,2.4,0.8,3.9,0.8
		c1.2,0,2.4-0.2,3.5-0.7c1.1-0.5,2.1-1.1,2.9-1.9c0.8-0.8,1.5-1.7,2-2.9c0.5-1.1,0.8-2.3,0.8-3.5L307.7,131.7z"/>
	<path class="st6" d="M343.9,111.7c2.7,0,5.3,0.5,7.7,1.5c2.5,1,4.6,2.3,6.5,4.1c1.8,1.8,3.3,3.8,4.4,6.2c1.1,2.4,1.7,5,1.7,7.8
		v28.3c0,1.5-0.5,2.7-1.6,3.8c-1,1.1-2.3,1.6-3.8,1.7c-1.5,0-2.8-0.5-3.9-1.5c-1.1-1-1.6-2.2-1.6-3.7V132c0-1.3-0.2-2.5-0.7-3.6
		c-0.5-1.1-1.1-2.1-2-3c-0.9-0.8-1.9-1.5-3-2c-1.1-0.5-2.4-0.8-3.7-0.8c-1.2,0-2.4,0.2-3.5,0.7c-1.1,0.5-2.1,1.1-2.9,1.9
		c-0.8,0.8-1.5,1.7-2,2.9c-0.5,1.1-0.8,2.3-0.8,3.5v28c0,1.5-0.6,2.7-1.7,3.8c-1.1,1.1-2.4,1.6-3.9,1.6c-1.5,0-2.7-0.5-3.9-1.5
		c-1.1-1-1.7-2.2-1.7-3.7V132c0.1-2.8,0.6-5.4,1.6-7.9c1-2.5,2.5-4.6,4.3-6.5c1.8-1.8,4-3.3,6.4-4.4
		C338.3,112.2,341,111.7,343.9,111.7z"/>
</g>
<path class="st7" d="M426,151.5c1.7,0,3.2,0.6,4.5,1.9c1.2,1.2,1.9,2.8,1.9,4.5c0,1.7-0.6,3.2-1.9,4.4c-1.2,1.2-2.7,1.8-4.5,1.8
	c-1.7,0-3.2-0.6-4.5-1.8c-1.2-1.2-1.9-2.7-1.9-4.4c0-1.8,0.6-3.3,1.9-4.5C422.8,152.2,424.3,151.5,426,151.5z"/>
<path class="st6" d="M432.3,124.2c0,3.1-0.5,6-1.6,8.7c-1.1,2.7-2.6,5.1-4.5,7.1s-4.2,3.7-6.9,4.9c-2.7,1.2-5.5,1.9-8.6,1.9h-15.1
	c-3.1,0-6-0.6-8.7-1.7c-2.7-1.1-5.1-2.7-7.1-4.7c-2-2-3.6-4.4-4.8-7.1c-1.2-2.7-1.8-5.8-1.8-9.1c0-3,0.5-5.8,1.6-8.5
	c1.1-2.7,2.6-5.1,4.5-7.1s4.3-3.7,6.9-4.9c2.7-1.2,5.5-1.9,8.6-1.9h15.1c3.1,0,6,0.6,8.7,1.7c2.7,1.1,5.1,2.7,7.1,4.7
	c2,2,3.6,4.4,4.8,7.1C431.7,118,432.3,121,432.3,124.2z M395.5,113.8c-1.4,0-2.8,0.3-4,0.8c-1.3,0.5-2.4,1.3-3.3,2.2
	c-0.9,1-1.7,2.1-2.2,3.3c-0.6,1.3-0.8,2.6-0.8,4.1c0,1.5,0.3,2.8,0.8,4.1c0.5,1.2,1.2,2.3,2.1,3.2c0.9,0.9,1.9,1.7,3.2,2.2
	c1.2,0.6,2.5,0.8,3.9,0.8h14.8c1.4,0.1,2.8-0.2,4-0.7c1.3-0.5,2.4-1.3,3.3-2.2c0.9-1,1.7-2.1,2.2-3.3c0.6-1.3,0.8-2.7,0.8-4.3
	c0-1.4-0.3-2.7-0.8-3.9c-0.5-1.2-1.2-2.3-2.1-3.2c-0.9-0.9-1.9-1.7-3.2-2.2c-1.2-0.6-2.5-0.8-3.9-0.8L395.5,113.8z"/>
<path class="st6" d="M417.9,76.1v7.5h8.2c1.7,0,3.2,0.6,4.4,1.8c1.2,1.2,1.8,2.7,1.8,4.4c0,1.7-0.6,3.2-1.8,4.4
	c-1.2,1.2-2.7,1.8-4.4,1.8h-47c-1.7,0-3.2-0.6-4.4-1.8c-1.2-1.2-1.8-2.7-1.8-4.4V73.6c0-3.1,0.6-6,1.8-8.8c1.2-2.8,2.8-5.1,4.8-7.2
	c2-2,4.4-3.6,7.2-4.8c2.8-1.2,5.7-1.8,8.8-1.8c4.1,0,7.8,1,11.2,2.9c3.4,1.9,6,4.5,8,7.7l6.9-7c1.2-1.2,2.7-1.8,4.5-1.8
	c1.7,0,3.2,0.6,4.5,1.9c1.2,1.1,1.9,2.5,1.9,4.3c0,1.7-0.6,3.2-1.9,4.5L417.9,76.1z M395.4,63.5c-1.4,0-2.7,0.3-3.9,0.8
	c-1.2,0.5-2.3,1.3-3.2,2.2c-0.9,0.9-1.7,2-2.2,3.2c-0.5,1.2-0.8,2.5-0.8,3.9v10h20.2v-10c0-1.4-0.3-2.7-0.8-3.9
	c-0.5-1.2-1.3-2.3-2.2-3.2c-0.9-0.9-2-1.7-3.2-2.2C398.1,63.8,396.8,63.5,395.4,63.5z"/>
<path class="st6" d="M432.3,23.7c-0.1,3-0.6,5.9-1.7,8.5c-1.1,2.7-2.6,5.1-4.6,7.1s-4.2,3.7-6.9,4.9c-2.7,1.2-5.5,1.9-8.6,1.9h-15.1
	c-3.1,0-6-0.6-8.7-1.7c-2.7-1.1-5.1-2.7-7.1-4.7c-2-2-3.6-4.4-4.8-7.1c-1.2-2.7-1.8-5.7-1.8-9.1c0-1.8,0.2-3.4,0.5-4.8
	c0.4-2.5,1.3-4.9,2.5-7c1.9-3.3,4.5-5.9,7.8-7.8c0.4-0.2,1-0.5,1.6-0.7c0.6-0.2,1.2-0.3,1.8-0.3c1.7,0,3.2,0.6,4.5,1.9
	c1.2,1.2,1.9,2.7,1.9,4.5c0,1.4-0.4,2.5-1.1,3.3c-0.7,0.9-1.6,1.6-2.6,2.3c-1.2,0.7-2.2,1.8-3,3.1c-0.6,1.1-1.1,2.4-1.6,4.1
	c-0.1,0.5-0.1,1.1-0.1,1.7c0,1.5,0.3,2.8,0.8,4.1c0.5,1.2,1.2,2.3,2.1,3.2c0.9,0.9,1.9,1.7,3.2,2.2c1.2,0.6,2.5,0.8,3.9,0.8h14.8
	c1.7,0.1,3.2-0.2,4.3-0.7c1.1-0.5,2.1-1.3,3.1-2.2c0.9-1,1.7-2.1,2.2-3.3c0.6-1.3,0.9-2.7,0.9-4.3c0-1.6-0.2-3-0.7-4
	c-0.5-1.1-1.2-2.1-2.1-3c-0.9-0.9-2-1.6-3.2-2.2c-1.2-0.6-2.5-0.8-3.8-0.8v2.1c0,1.7-0.6,3.1-1.8,4.3c-1.2,1.2-2.7,1.8-4.4,1.8
	c-1.8,0-3.3-0.6-4.5-1.8c-1.2-1.2-1.8-2.6-1.8-4.3V7.4c0-1.8,0.6-3.3,1.8-4.5c1.2-1.2,2.7-1.8,4.5-1.9h5.7c3.1,0.2,6,0.9,8.7,2
	c2.7,1.1,5.1,2.7,7.1,4.7c2,2,3.6,4.4,4.8,7.1C431.7,17.6,432.3,20.5,432.3,23.7z"/>
</svg>
