<?xml version="1.0" encoding="utf-8"?>
<svg version="1.1"  xmlns="http://www.w3.org/2000/svg" xmlns:xlink="http://www.w3.org/1999/xlink" viewBox="177.68 40.9 8.13 7.82">
	<path style="fill:white;" d="M185.5,43.2c-0.2-0.5-0.5-0.9-0.8-1.2c-0.4-0.4-0.8-0.6-1.2-0.8c-1-0.4-2.1-0.4-3.1,0 		c-0.5,0.2-0.9,0.5-1.2,0.8c-0.4,0.4-0.6,0.8-0.8,1.2c-0.2,0.5-0.3,1-0.3,1.5c0,0.4,0.1,0.8,0.2,1.3l-0.6,1.4c0,0,0,0.1,0,0.1 		c0,0,0,0,0.1,0.1l1.7,0.2c0.3,0.3,0.7,0.5,1,0.6c0.5,0.2,1,0.3,1.5,0.3s1-0.1,1.5-0.3c0.5-0.2,0.9-0.5,1.2-0.8 		c0.4-0.4,0.6-0.8,0.8-1.2c0.2-0.5,0.3-1,0.3-1.5S185.7,43.7,185.5,43.2z M179.8,45.5c-0.1-0.3-0.2-0.5-0.2-0.8c0-1.3,1-2.3,2.3-2.3 		s2.3,1,2.3,2.3c0,1.3-1,2.3-2.3,2.3c-0.5,0-1-0.2-1.4-0.5c0,0,0,0-0.1,0c0,0,0,0,0,0l-0.9-0.1L179.8,45.5 		C179.8,45.6,179.8,45.6,179.8,45.5z"></path>
</svg>