<?xml version="1.0" encoding="utf-8"?>
<!-- Generator: $$$/GeneralStr/196=Adobe Illustrator 27.6.0, SVG Export Plug-In . SVG Version: 6.00 Build 0)  -->
<svg version="1.1" id="Calque_1" xmlns="http://www.w3.org/2000/svg" xmlns:xlink="http://www.w3.org/1999/xlink" x="0px" y="0px"
	 viewBox="0 0 193.6 55.8" style="enable-background:new 0 0 193.6 55.8;" xml:space="preserve">
<style type="text/css">
	.Ombre_x0020_portée{fill:none;}
	.Arrondis_x0020_2 pt{fill:#FFFFFF;stroke:#000000;stroke-miterlimit:10;}
	.Miroir_x0020_dynamique X{fill:none;}
	.Biseau_x0020_adouci{fill:url(#SVGID_1_);}
	.Crépuscule{fill:#FFFFFF;}
	.Feuillage_GS{fill:#FFDD00;}
	.Pompadour_GS{fill-rule:evenodd;clip-rule:evenodd;fill:#51AEE2;}
	.st0{fill:#FFFFFF;}
	.st1{font-family:'Montserrat-Regular';}
	.st2{font-size:9.3149px;}
</style>
<linearGradient id="SVGID_1_" gradientUnits="userSpaceOnUse" x1="0" y1="0" x2="0.7071" y2="0.7071">
	<stop  offset="0" style="stop-color:#E6E6EB"/>
	<stop  offset="0.1738" style="stop-color:#E2E2E6"/>
	<stop  offset="0.352" style="stop-color:#D5D4D8"/>
	<stop  offset="0.5323" style="stop-color:#C0BFC2"/>
	<stop  offset="0.7139" style="stop-color:#A4A2A4"/>
	<stop  offset="0.8949" style="stop-color:#828282"/>
	<stop  offset="1" style="stop-color:#6B6E6E"/>
</linearGradient>
<text transform="matrix(1 0 0 1 141.2343 50.0617)" class="st0 st1 st2">By</text>
<g>
	<path class="st0" d="M32.7,18.6c0,8.7-7.1,15.5-16.2,15.5S0.4,27.3,0.4,18.6c0-8.8,7.1-15.4,16.2-15.4S32.7,9.9,32.7,18.6z
		 M5.7,18.6c0,6.1,5,10.8,11,10.8s10.8-4.8,10.8-10.8c0-6.1-4.9-10.8-10.8-10.8C10.6,7.9,5.7,12.6,5.7,18.6z"/>
	<path class="st0" d="M59.2,14.3l-2.7,3.2c-1.6-1.7-3.8-2.7-6.6-2.6c-4,0-6.9,3-6.9,7.4c0,4.4,2.9,7.4,6.9,7.4c2.9,0,5.3-1,6.8-2.8
		l2.8,2.8C57.3,32.5,54,34,49.6,34c-6.9,0-11.7-4.7-11.7-11.7c0-7,4.8-11.8,11.7-11.8C53.8,10.5,57,11.9,59.2,14.3z"/>
	<path class="st0" d="M79.9,32.4c-1.8,1.1-3.7,1.7-5.7,1.7c-3.5,0-6.5-2-6.5-6.7v-12h-3.3v-3.7h3.3V5.2h5v6.4h6.8v3.7h-6.8v11.1
		c0,2.4,0.9,3.1,2.5,3.1c1,0,2.1-0.3,3.5-1L79.9,32.4z"/>
	<path class="st0" d="M140.2,22.4c0,6.9-4.4,11.7-11,11.7c-3.7,0-6.5-1.5-8.2-4.2v21h-5V10.7h5v4c1.7-2.7,4.5-4.2,8.1-4.2
		C135.7,10.5,140.2,15.3,140.2,22.4z M135.2,22.2c0-4.3-2.9-7.5-7.1-7.5c-4.1,0-7.1,3.1-7.1,7.5c0,4.5,2.9,7.6,7.1,7.6
		C132.3,29.8,135.2,26.6,135.2,22.2z"/>
	<path class="st0" d="M168.7,33.9h-5v-4.5c-1.6,3.2-4.5,4.7-8.3,4.7c-5.3,0-8.5-3.4-8.5-8.9V10.7h5v13c0,3.5,2,5.6,5.4,5.6
		c4-0.1,6.4-3.2,6.4-7.2V10.7h5V33.9z"/>
	<path class="st0" d="M193.2,12.8l-1.8,3.7c-2-1.3-4.6-2-6.7-2c-2,0-3.4,0.7-3.4,2.3c0,4.3,12.3,2,12.3,10.4c0,4.7-4.2,6.9-8.9,6.9
		c-3.4,0-7-1.1-9.3-3.2l1.8-3.6c2,1.8,5.2,2.9,7.7,2.9c2.1,0,3.8-0.7,3.8-2.5c0-4.7-12.2-2.1-12.1-10.4c0-4.7,4.1-6.7,8.5-6.7
		C188.1,10.5,191.2,11.4,193.2,12.8z"/>
</g>
<path class="st0" d="M110.8,17.4c-0.7-1.6-1.6-3-2.8-4.2c-1.2-1.2-2.6-2.2-4.2-2.8c-3.3-1.4-7.1-1.4-10.3,0c-1.6,0.7-3,1.6-4.2,2.8
	c-1.2,1.2-2.2,2.6-2.8,4.2c-0.7,1.6-1,3.4-1,5.2c0,1.4,0.2,2.9,0.7,4.2l-2,4.8c0,0.1,0,0.2,0,0.3c0.1,0.1,0.2,0.2,0.3,0.2l5.7,0.6
	c1,0.9,2.2,1.6,3.5,2.2c1.6,0.7,3.4,1,5.2,1c1.8,0,3.5-0.4,5.2-1c1.6-0.7,3-1.6,4.2-2.8c1.2-1.2,2.2-2.6,2.8-4.2
	c0.7-1.6,1-3.4,1-5.2S111.5,19.1,110.8,17.4z M91.4,25.4c-0.3-0.9-0.5-1.8-0.5-2.8c0-4.2,3.4-7.7,7.7-7.7c4.2,0,7.7,3.4,7.7,7.7
	c0,4.2-3.4,7.7-7.7,7.7c-1.7,0-3.4-0.6-4.7-1.6c-0.1,0-0.1-0.1-0.2-0.1c0,0-0.1,0-0.1,0l-3.1-0.2l1-2.7
	C91.4,25.5,91.4,25.4,91.4,25.4z"/>
<g>
	<path class="st0" d="M185.5,43.2c-0.2-0.5-0.5-0.9-0.8-1.2c-0.4-0.4-0.8-0.6-1.2-0.8c-1-0.4-2.1-0.4-3.1,0
		c-0.5,0.2-0.9,0.5-1.2,0.8c-0.4,0.4-0.6,0.8-0.8,1.2c-0.2,0.5-0.3,1-0.3,1.5c0,0.4,0.1,0.8,0.2,1.3l-0.6,1.4c0,0,0,0.1,0,0.1
		c0,0,0,0,0.1,0.1l1.7,0.2c0.3,0.3,0.7,0.5,1,0.6c0.5,0.2,1,0.3,1.5,0.3s1-0.1,1.5-0.3c0.5-0.2,0.9-0.5,1.2-0.8
		c0.4-0.4,0.6-0.8,0.8-1.2c0.2-0.5,0.3-1,0.3-1.5S185.7,43.7,185.5,43.2z M179.8,45.5c-0.1-0.3-0.2-0.5-0.2-0.8c0-1.3,1-2.3,2.3-2.3
		s2.3,1,2.3,2.3c0,1.3-1,2.3-2.3,2.3c-0.5,0-1-0.2-1.4-0.5c0,0,0,0-0.1,0c0,0,0,0,0,0l-0.9-0.1L179.8,45.5
		C179.8,45.6,179.8,45.6,179.8,45.5z"/>
	<g>
		<g>
			<path class="st0" d="M161.9,46.9c-0.4-0.3-0.9-0.6-1.4-0.9c-0.2-0.1-0.4-0.2-0.7-0.4c-0.2-0.1-0.3-0.3-0.3-0.5
				c0-0.2,0.1-0.3,0.2-0.4c0.1-0.1,0.3-0.2,0.4-0.2h0c0.2,0,0.4,0.1,0.5,0.2c0.2,0.1,0.3,0.3,0.4,0.5c0,0,0,0,0.1,0c0,0,0.1,0,0.1,0
				l1-0.9c0,0,0-0.1,0-0.1c-0.3-0.4-0.6-0.7-0.9-0.9c-0.3-0.2-0.7-0.3-1.2-0.3h-0.1c-0.6,0-1.1,0.2-1.5,0.6
				c-0.5,0.4-0.7,0.9-0.7,1.5v0.1c0,0.5,0.2,1,0.5,1.3c0.3,0.3,0.7,0.6,1.2,0.8c0.2,0.1,0.5,0.3,0.9,0.5c0.3,0.2,0.5,0.4,0.5,0.6
				c0,0.2-0.1,0.4-0.2,0.5c-0.1,0.1-0.3,0.2-0.6,0.2c-0.3,0-0.6-0.1-0.7-0.2c-0.2-0.2-0.3-0.4-0.4-0.7c0,0,0-0.1-0.1-0.1
				c0,0-0.1,0-0.1,0l-1.1,1c0,0,0,0.1,0,0.1c0.2,0.5,0.5,0.9,1,1.2c0.4,0.2,0.8,0.4,1.3,0.4c0.1,0,0.1,0,0.2,0
				c0.7,0,1.3-0.3,1.7-0.7c0.5-0.4,0.7-0.9,0.7-1.6v0C162.6,47.7,162.4,47.2,161.9,46.9z"/>
			<path class="st0" d="M175.6,43.6c-0.7-0.4-1.4-0.6-2.2-0.6c-0.8,0-1.5,0.2-2.2,0.6c0,0,0,0,0,0c-0.4,0.3-0.8,0.6-1.1,1.1
				c-0.4,0.5-0.6,1.1-0.6,1.8c0,0.1,0,0.3,0,0.4c0,0.5,0.1,1,0.3,1.5c0.2,0.5,0.5,0.9,0.9,1.2c0.2,0.2,0.4,0.4,0.6,0.5
				c0.4,0.3,0.9,0.5,1.4,0.6c0.3,0.1,0.5,0.1,0.8,0.1c0.5,0,1-0.1,1.5-0.3c0.7-0.3,1.3-0.8,1.8-1.4c0.1-0.2,0.3-0.4,0.4-0.7
				c0.2-0.5,0.3-1,0.3-1.5c0-0.8-0.2-1.5-0.7-2.1C176.4,44.3,176,43.9,175.6,43.6z M175.6,46.8c0,0.8-0.3,1.4-1,1.9
				c-0.6,0.4-1.3,0.5-2,0.2c-0.4-0.2-0.7-0.4-1-0.8c-0.2-0.3-0.3-0.7-0.4-1c0-0.1,0-0.1,0-0.2c0-0.3,0.1-0.6,0.2-0.9
				c0.1-0.1,0.1-0.3,0.2-0.4c0.1-0.1,0.2-0.2,0.3-0.3c0,0,0,0,0,0c0.1-0.1,0.2-0.2,0.3-0.3c0,0,0.1-0.1,0.2-0.1
				c0.1,0,0.2-0.1,0.2-0.1c0.6-0.2,1.1-0.2,1.7,0c0.5,0.2,0.9,0.6,1.2,1.2C175.5,46.2,175.6,46.5,175.6,46.8z"/>
			<path class="st0" d="M193.5,43H192c-0.1,0-0.1,0-0.1,0.1v7.5c0,0.1,0,0.1,0.1,0.1h1.5c0.1,0,0.1,0,0.1-0.1v-7.5
				C193.6,43,193.6,43,193.5,43z"/>
			<path class="st0" d="M191.3,43h-5.1c0,0-0.1,0-0.1,0c0,0,0,0.1,0,0.1l0.3,1.3c0,0,0.1,0.1,0.1,0.1h0l1.4,0v6.1
				c0,0.1,0,0.1,0.1,0.1h1.5c0.1,0,0.1,0,0.1-0.1v-6.1h1.7c0,0,0.1,0,0.1,0c0,0,0,0,0-0.1l0-1.3C191.4,43,191.3,43,191.3,43z"/>
			<path class="st0" d="M166.4,43c0-0.1-0.2-0.1-0.2,0l-3.6,7.5c0,0,0,0.1,0,0.1c0,0,0.1,0,0.1,0h1.6c0,0,0.1,0,0.1-0.1l0.8-1.6h2.3
				l0.7,1.6c0,0,0.1,0.1,0.1,0.1h1.6c0,0,0.1,0,0.1,0c0,0,0-0.1,0-0.1L166.4,43z M166.8,47.5h-1l0.5-1.1L166.8,47.5z"/>
		</g>
	</g>
</g>
</svg>
