<svg version="1.1" id="svg2" sodipodi:docname="Logo Saooti Play_Blanc.ai" xmlns:inkscape="http://www.inkscape.org/namespaces/inkscape" xmlns:sodipodi="http://sodipodi.sourceforge.net/DTD/sodipodi-0.dtd" xmlns="http://www.w3.org/2000/svg" xmlns:svg="http://www.w3.org/2000/svg" viewBox="276.8 289.13 2006.4 861.75">
  <defs id="defs6">
    <clipPath clipPathUnits="userSpaceOnUse" id="clipPath16">
      <path d="M 0,1080 H 1920 V 0 H 0 Z" id="path14"/>
    </clipPath>
  </defs>
  <sodipodi:namedview id="namedview4" pagecolor="#ffffff" bordercolor="#000000" borderopacity="0.25" inkscape:showpageshadow="2" inkscape:pageopacity="0.0" inkscape:pagecheckerboard="0" inkscape:deskcolor="#d1d1d1"/>
  <g id="g8" inkscape:groupmode="layer" inkscape:label="Logo Saooti Play_Blanc" transform="matrix(1.3333333,0,0,-1.3333333,0,1440)">
    <g id="g10">
      <g id="g12" clip-path="url(#clipPath16)">
        <g id="g18" transform="translate(1133.4479,664.3621)">
          <path d="m 0,0 c -4.273,10.97 -6.437,22.539 -6.437,34.381 0,52.453 42.668,95.125 95.116,95.125 52.449,0 95.116,-42.672 95.116,-95.125 0,-52.444 -42.667,-95.116 -95.116,-95.116 -21.534,0 -41.857,7.049 -58.77,20.38 -0.691,0.546 -1.467,0.793 -2.247,0.793 -0.572,0 -1.145,-0.132 -1.691,-0.379 L -12.908,-36.892 0.009,-3.11 C 0.392,-2.106 0.388,-0.996 0,0 m 240.204,98.411 c -8.287,19.587 -20.138,37.166 -35.231,52.259 -15.089,15.093 -32.676,26.944 -52.268,35.244 -40.601,17.147 -87.45,17.156 -128.051,-0.008 -19.592,-8.292 -37.179,-20.143 -52.268,-35.236 -15.089,-15.093 -26.944,-32.672 -35.227,-52.259 -8.586,-20.292 -12.943,-41.835 -12.943,-64.03 0,-17.913 2.868,-35.509 8.524,-52.347 l -24.962,-59.149 c -0.533,-1.26 -0.436,-2.705 0.26,-3.886 0.701,-1.18 1.917,-1.964 3.278,-2.105 l 70.247,-7.305 c 12.908,-11.102 27.398,-20.089 43.091,-26.724 20.292,-8.591 41.835,-12.943 64.025,-12.943 22.191,0 43.734,4.352 64.026,12.943 19.601,8.291 37.188,20.142 52.268,35.227 15.089,15.085 26.944,32.672 35.231,52.267 8.587,20.301 12.939,41.836 12.939,64.022 0,22.186 -4.352,43.73 -12.939,64.03" style="fill:#ffffff;fill-opacity:1;fill-rule:nonzero;stroke:none" id="path20"/>
        </g>
        <g id="g22" transform="translate(385.6355,608.8521)">
          <path d="m 0,0 c -17.534,13.939 -37.447,26.927 -59.206,38.619 -8.49,4.503 -17.887,10.292 -27.927,17.226 -8.829,6.088 -13.305,12.52 -13.305,19.12 0,7.234 2.401,12.75 7.331,16.873 5.203,4.335 11.071,6.626 17.715,6.996 h 1.18 c 8.287,0 15.05,-2.458 20.676,-7.489 6.339,-5.701 11.859,-12.256 16.406,-19.49 0.678,-1.075 1.797,-1.798 3.053,-1.974 1.273,-0.194 2.533,0.203 3.485,1.049 l 42.355,37.588 c 1.573,1.392 1.916,3.709 0.815,5.498 -10.759,17.534 -23.323,30.134 -37.333,37.456 -13.891,7.278 -31.174,11.181 -51.448,11.586 h -2.401 c -24.42,0 -46.091,-8.37 -64.422,-24.882 -18.922,-17.164 -28.945,-38.381 -29.804,-63.211 v -3.586 c 0,-22.46 7.172,-40.743 21.301,-54.312 14.203,-13.798 30.733,-25.667 49.082,-35.262 9.613,-5.216 21.9,-11.675 36.848,-19.34 13.472,-6.917 20.019,-15.103 20.019,-25.033 0,-10.177 -2.899,-17.446 -8.864,-22.221 -6.243,-5.005 -13.882,-7.437 -23.358,-7.437 -13.864,0 -24.063,3.375 -30.297,10.01 -6.622,7.092 -11.688,16.908 -15.058,29.182 -0.397,1.436 -1.498,2.564 -2.921,2.996 -1.436,0.431 -2.978,0.105 -4.093,-0.873 l -46.355,-40.178 c -1.397,-1.207 -1.868,-3.172 -1.177,-4.89 8.723,-21.596 22.918,-38.249 42.179,-49.492 17.116,-10.08 35.456,-15.182 54.519,-15.182 2.234,0 4.392,0.07 6.472,0.211 28.517,1.771 52.734,11.138 71.978,27.817 19.455,16.917 29.473,39.527 29.768,67.264 v 1.19 C 27.213,-35.985 18.058,-14.397 0,0" style="fill:#ffffff;fill-opacity:1;fill-rule:nonzero;stroke:none" id="path24"/>
        </g>
        <g id="g26" transform="translate(956.5075,610.6407)">
          <path d="m 0,0 c 0,-33.835 -13.296,-59.343 -40.694,-78.005 -26.724,-18.618 -55.321,-21.534 -85.133,-8.74 -16.693,7.066 -30.416,18.688 -40.8,34.557 -8.498,12.917 -13.512,27.455 -14.904,43.174 -0.251,3.058 -0.37,6.159 -0.37,9.234 0,12.433 2.313,24.53 6.873,35.95 2.392,5.956 5.22,11.419 8.375,16.203 3.396,5.049 7.247,9.736 11.445,13.939 0.238,0.238 0.45,0.529 0.626,0.846 4.449,4.388 8.851,8.027 13.305,10.961 1.401,1.066 3.872,2.564 7.357,4.459 3.551,1.938 6.3,3.366 8.071,4.203 23.292,9.683 46.65,9.604 69.934,-0.185 C -33.249,76.842 -16.745,59.81 -6.864,35.958 -2.308,24.953 0,12.855 0,0 m 0.079,134.81 c -27.371,17.561 -57.933,26.46 -90.838,26.46 -33.561,0 -64.264,-8.908 -91.248,-26.478 -0.321,-0.211 -0.612,-0.475 -0.863,-0.775 -17.891,-11.939 -32.998,-26.803 -44.906,-44.197 -15.133,-22.115 -24.112,-47.077 -26.685,-74.163 -0.55,-5.401 -0.832,-10.934 -0.832,-16.45 0,-21.288 4.225,-42.02 12.534,-61.607 8.018,-19.376 20.036,-36.892 35.724,-52.056 8.314,-8.045 16.684,-14.741 24.768,-19.852 17.429,-11.736 37.32,-19.834 59.11,-24.072 11.058,-2.176 22.098,-3.278 32.812,-3.278 21.002,0 41.844,4.142 61.934,12.318 30.631,12.389 55.611,32.417 74.255,59.555 6.089,8.899 11.204,18.159 15.221,27.561 8.168,19.737 12.31,40.672 12.31,62.224 0,32.469 -9.261,62.621 -27.526,89.618 -12.213,17.922 -27.592,33.121 -45.77,45.192" style="fill:#ffffff;fill-opacity:1;fill-rule:nonzero;stroke:none" id="path28"/>
        </g>
        <g id="g30" transform="translate(1708.0514,771.9105)">
          <path d="m 0,0 h -62.722 c -2.392,0 -4.33,-1.938 -4.33,-4.326 V -317.79 c 0,-2.388 1.938,-4.327 4.33,-4.327 H 0 c 2.392,0 4.331,1.939 4.331,4.327 V -4.326 C 4.331,-1.938 2.392,0 0,0" style="fill:#ffffff;fill-opacity:1;fill-rule:nonzero;stroke:none" id="path32"/>
        </g>
        <g id="g34" transform="translate(1613.8783,771.9105)">
          <path d="m 0,0 h -212.568 c -1.295,0 -2.525,-0.582 -3.344,-1.577 -0.824,-1.005 -1.154,-2.318 -0.903,-3.586 l 11.062,-55.854 c 0.401,-2.035 2.181,-3.489 4.247,-3.489 h 0.005 l 59.779,0.07 V -317.79 c 0,-2.388 1.938,-4.327 4.33,-4.327 h 62.533 c 2.392,0 4.33,1.939 4.33,4.327 V -64.427 H 0.238 c 1.15,0 2.256,0.458 3.066,1.269 0.815,0.819 1.269,1.921 1.264,3.075 L 4.331,-4.309 C 4.317,-1.921 2.383,0 0,0" style="fill:#ffffff;fill-opacity:1;fill-rule:nonzero;stroke:none" id="path36"/>
        </g>
        <g id="g38" transform="translate(588.7757,582.6566)">
          <path d="m 0,0 h -40.117 l 20.059,44.373 z m -16.75,186.796 c -1.436,3.013 -6.37,3.013 -7.807,0 l -150.22,-313.491 c -0.643,-1.339 -0.551,-2.916 0.238,-4.176 0.793,-1.26 2.176,-2.018 3.665,-2.018 h 66.713 c 1.688,0 3.217,0.978 3.926,2.502 l 31.799,68.559 h 95.927 l 31.2,-68.515 c 0.7,-1.551 2.242,-2.546 3.947,-2.546 h 66.925 c 1.489,0 2.872,0.758 3.665,2.018 0.789,1.26 0.882,2.837 0.238,4.176 z" style="fill:#ffffff;fill-opacity:1;fill-rule:nonzero;stroke:none" id="path40"/>
        </g>
        <g id="g42" transform="translate(292.6757,386.9808)">
          <path d="m 0,0 h 12.672 c 1.635,0 2.96,-1.325 2.96,-2.96 v -89.015 h 45.524 c 1.635,0 2.961,-1.326 2.961,-2.961 v -12.674 c 0,-1.635 -1.326,-2.961 -2.961,-2.961 H 0 c -1.635,0 -2.96,1.326 -2.96,2.961 V -2.96 C -2.96,-1.325 -1.635,0 0,0" style="fill:#ffffff;fill-opacity:1;fill-rule:nonzero;stroke:none" id="path44"/>
        </g>
        <g id="g46" transform="translate(264.5452,358.2814)">
          <path d="m 0,0 c 0,7.002 -4.655,12.227 -17.557,12.227 h -20.784 v -24.454 h 20.784 C -4.655,-12.227 0,-7.002 0,0 m 16.847,0 c 0,-17.428 -12.901,-28.18 -33.725,-28.18 h -21.463 v -50.731 c 0,-1.635 -1.325,-2.96 -2.96,-2.96 h -12.666 c -1.635,0 -2.96,1.325 -2.96,2.96 V 25.22 c 0,1.635 1.325,2.96 2.96,2.96 h 37.089 C 3.946,28.18 16.847,17.541 16.847,0" style="fill:#ffffff;fill-opacity:1;fill-rule:nonzero;stroke:none" id="path48"/>
        </g>
        <g id="g50" transform="translate(483.2922,333.7129)">
          <path d="m 0,0 v -54.342 c 0,-1.635 -1.325,-2.961 -2.96,-2.961 h -12.671 c -1.635,0 -2.96,1.326 -2.96,2.961 v 54.116 l -31.538,51.214 c -1.192,1.973 0.229,4.491 2.534,4.491 h 12.313 c 1.039,0 2.002,-0.544 2.537,-1.435 l 23.443,-41.369 25.123,41.38 c 0.537,0.885 1.497,1.424 2.531,1.424 h 11.073 c 2.306,0 3.727,-2.519 2.533,-4.492 z" style="fill:#ffffff;fill-opacity:1;fill-rule:nonzero;stroke:none" id="path52"/>
        </g>
        <g id="g54" transform="translate(1673.8834,338.2391)">
          <path d="m 0,0 c -18.569,10.631 -37.153,21.27 -55.768,31.928 0.126,-26.71 0.253,-53.441 0.379,-80.173 20.383,11.9 40.769,23.801 61.141,35.695 2.99,1.744 1.983,3.483 -1.029,1.782 -9.348,-5.279 -18.806,-10.423 -28.331,-15.489 -4.773,-2.514 -9.55,-5.031 -14.331,-7.549 l -7.192,-3.746 -5.758,-2.898 0.393,6.735 0.395,8.409 0.766,16.822 0.684,16.82 0.291,8.408 0.034,1.05 c 0.005,0.243 0.011,0.173 0.016,0.22 l 0.016,0.073 0.064,0.253 c 0.041,0.148 0.08,0.255 0.117,0.328 0.275,-0.232 0.42,-0.382 0.542,-0.51 l 6.171,-3.711 c 4.12,-2.46 8.253,-4.89 12.402,-7.286 C -20.699,2.37 -12.338,-2.28 -3.892,-6.742 7.396,-12.706 11.571,-6.638 0,0" style="fill:#ffffff;fill-opacity:1;fill-rule:nonzero;stroke:none" id="path56"/>
        </g>
        <g id="g58" transform="translate(440.3798,298.9163)">
          <path d="m 0,0 c 11.324,-21.513 31.71,-70.804 91.724,-58.277 31.276,6.529 44.702,25.967 53.586,34.181 4.89,4.467 10.416,9.681 16.773,13.358 20.905,12.353 45.256,22.771 70.092,18.576 6.486,-1.163 12.823,-3.376 18.569,-6.47 8.127,-4.037 15.085,-10.9 22.34,-15.24 32.515,-15.42 95,-46.023 110.469,4.896 0.833,2.255 1.53,5.992 2.103,8.387 3.322,15.239 7.374,30.285 14.609,44.281 3.406,6.071 6.688,11.757 13.028,15.816 6.294,4.122 14.114,1.803 17.933,-4.424 4.592,-6.996 5.732,-15.8 6.748,-23.646 1.733,-11.48 4.694,-23.137 9.342,-33.731 1.967,-4.185 4.319,-9.43 8.159,-11.785 0.388,-0.06 -0.109,-0.122 0.267,0.029 0.331,0.199 1.014,0.937 1.575,1.926 3.839,7.248 4.798,16.213 5.954,24.542 0.925,5.628 1.13,13.46 6.639,17.142 9.604,4.734 15.628,-11.597 18.929,-17.934 6.466,-13.946 11.273,-28.047 18.032,-41.475 1.031,-1.995 2.289,-4.278 3.77,-5.753 -0.032,0.01 -0.132,0.119 -0.711,0.247 -0.546,0.138 -1.536,-0.05 -1.99,-0.368 -0.477,-0.293 -0.584,-0.528 -0.587,-0.504 1.439,3.487 1.427,8.086 1.73,12.12 0.074,5.11 0.293,12.834 0.253,18.055 0.304,18.327 1.437,36.623 3.491,54.847 1.434,10.958 6.84,59.974 17.085,62.745 4.529,1.427 7.401,-2.816 8.084,-6.409 1.827,-8.529 1.219,-17.398 1.833,-25.756 0.906,-18.086 2.475,-36.135 4.17,-54.182 2.616,-27.058 5.662,-54.196 9.039,-81.19 0.889,-5.924 1.13,-12.698 3.834,-17.772 0.155,-0.275 0.254,-0.103 -0.494,0.179 -0.509,0.153 -1.169,0.114 -1.566,-0.119 0.955,0.91 1.666,2.307 2.369,3.794 6.071,14.851 7.722,31.342 8.512,47.293 0.129,12.204 0.389,24.606 2.273,36.742 0.926,6.152 2.07,12.265 4.049,18.448 1.265,3.548 2.381,7.029 5.282,9.859 2.232,2.282 6.4,2.519 8.734,0.181 2.1,-1.905 3.109,-4.818 3.784,-6.937 1.838,-6.208 2.377,-12.355 3.127,-18.645 1.495,-11.656 3.191,-23.752 6.65,-34.867 0.706,-2.149 1.791,-5.125 3.045,-6.638 0.188,-0.258 0.289,-0.093 -0.474,0.092 -0.465,0.127 -1.292,-0.049 -1.521,-0.266 7.422,10.503 4.832,42.951 18.879,46.72 13.01,2.237 20.716,-27.067 28.627,-34.732 0.296,-0.297 0.57,-0.362 0.236,-0.248 -0.163,0.05 -0.539,0.09 -0.896,0.001 -0.408,-0.095 -0.609,-0.253 -0.711,-0.336 l 0.371,0.397 c 4.936,5.296 10.867,10.528 18.525,11.519 5.411,0.829 11.435,-1.799 15.47,-4.459 5.315,-3.34 10.502,-7.617 15.779,-2.78 3.411,3.094 6.996,6.257 10.83,8.803 50.36,31.984 126.103,18.263 180.176,2.671 49.315,-14.42 92.28,-13.345 142.452,-4.906 53.513,8.703 89.865,4.025 137.964,-22.429 22.34,-9.946 50.367,-6.387 70.819,6.612 9.651,6.278 17.219,15.749 22.051,26.148 4.804,10.495 6.315,22.429 4.05,33.756 -4.485,22.554 -22.786,42.833 -45.384,48.329 -22.515,5.397 -48.927,-1.53 -64.637,-18.938 -10.684,-13.17 -16.804,-33.051 -14.175,-49.945 0.989,-5.793 3.586,-11.376 7.976,-15.29 l -1.043,-1.211 c -14.461,12.973 -10.696,36.168 -4.49,52.418 4.311,11.745 12.583,21.952 23.381,28.312 23.845,14.652 57.287,15.266 79.291,-3.287 35.714,-28.971 34.243,-78.855 -3.576,-105.487 -22.518,-14.448 -52.275,-18.361 -77.143,-7.592 -4.091,2.002 -8.151,4.24 -12.218,6.219 -41.706,20.799 -76.609,22.674 -121.812,15.16 -51.087,-8.769 -95.33,-9.853 -145.591,4.685 C 851.3,5.395 815.587,12.409 779.568,11.352 756.327,10.482 731.92,6.334 712.397,-6.624 c -2.346,-1.634 -4.636,-3.343 -6.731,-5.247 -3.912,-3.828 -8.74,-7.605 -14.653,-7.229 -14.295,1.385 -19.351,17.711 -33.989,4.301 -1.268,-1.12 -2.555,-2.415 -3.722,-3.692 -1.084,-1.208 -2.167,-2.135 -3.954,-2.561 -8.092,-1.516 -12.916,11.179 -16.244,16.634 -2.756,5.098 -5.474,10.571 -8.841,15.089 -1.026,1.31 -2.035,2.533 -3.231,3.136 -0.157,0.044 -0.026,0 0.131,0.028 -2.605,-2.845 -3.801,-8.099 -4.881,-12.33 -2.391,-8.022 -3.774,-36.033 -15.729,-34.179 -8.872,1.847 -11.64,22.948 -13.324,30.453 -1.358,7.526 -2.384,15.192 -3.247,22.768 -0.71,5.107 -1.227,11.215 -3.549,15.61 -0.078,0.115 -0.136,0.165 -0.071,0.105 0.061,-0.051 0.305,-0.272 0.831,-0.406 0.629,-0.183 1.551,0.014 1.825,0.267 -1.36,-1.647 -2.169,-4.055 -2.902,-6.2 -5.153,-16.933 -5.695,-35.149 -5.854,-52.831 -0.448,-12.43 -1.865,-24.738 -4.757,-36.882 -1.143,-4.632 -2.485,-9.299 -4.495,-13.73 -1.39,-2.884 -3.085,-6.254 -6.388,-7.923 -12.167,-4.498 -12.977,17.044 -14.165,24.359 -3.412,27.083 -6.488,54.27 -9.139,81.443 -1.722,18.157 -3.318,36.347 -4.247,54.584 -0.738,8.499 0.21,17.335 -1.998,25.269 0.562,-0.949 2.413,-1.474 3.547,-1.039 0.856,0.318 0.907,0.54 0.924,0.517 0,0 -0.112,-0.138 -0.223,-0.306 -3.185,-5.961 -4.56,-13.182 -6.168,-20.088 -2.456,-11.651 -4.178,-23.56 -5.534,-35.493 -2.86,-23.95 -3.374,-48.194 -3.634,-72.301 -0.151,-3.13 -0.341,-6.256 -0.873,-9.576 -0.387,-2.16 -0.89,-4.948 -2.389,-7.183 -3.112,-4.662 -8.748,-3.342 -11.68,0.732 -3.534,4.572 -5.764,9.884 -8.12,14.995 -4.974,11.246 -9.256,22.586 -14.23,33.39 -2.337,4.606 -4.594,10.353 -8.182,13.726 0.559,-0.316 1.815,-0.028 2.17,0.392 -0.019,-0.004 -0.253,-0.364 -0.438,-0.813 -1.2,-3.001 -1.575,-6.264 -2.028,-9.795 -0.74,-6.152 -1.657,-12.31 -3.339,-18.558 -1.961,-6.325 -4.349,-14.575 -12.173,-15.961 -13.535,-1.071 -20.951,24.802 -23.981,34.919 -1.653,6.025 -2.95,12.129 -3.879,18.319 -1.164,7.284 -1.731,16.896 -7.169,21.769 -1.399,0.805 -2.047,0.45 -3.585,-0.349 -3.928,-2.555 -7.221,-7.771 -9.532,-12.194 -2.655,-5.053 -4.822,-10.517 -6.723,-16.082 -2.842,-8.381 -5.065,-17.08 -6.884,-25.781 -0.528,-2.669 -1.478,-6.655 -2.301,-9.246 -8.938,-30.259 -33.99,-39.126 -63.11,-33.431 -21.381,4.025 -41.346,13.206 -60.739,22.44 -8.587,4.679 -14.418,11.311 -22.723,15.351 -4.935,2.638 -10.195,4.443 -15.638,5.412 -16.986,2.869 -34.288,-2.596 -49.541,-10.066 -5.264,-2.526 -10.419,-5.475 -15.395,-8.509 -4.437,-2.887 -8.817,-6.997 -13.268,-11.063 C 134.556,-48.84 116.662,-67.377 92.042,-73.287 31.71,-87.767 0.097,-43.021 -16.264,-7.316 -16.263,-7.317 0,0 0,0" style="fill:#ffffff;fill-opacity:1;fill-rule:nonzero;stroke:none" id="path60"/>
        </g>
        <g id="g62" transform="translate(369.8762,333.8621)">
          <path d="M 0,0 16.891,35.22 33.782,0 Z M 74.468,-42.879 19.032,68.062 c -0.397,0.806 -1.219,1.318 -2.118,1.318 h -0.011 c -0.904,-0.005 -1.724,-0.526 -2.115,-1.337 l -47.891,-97.681 c -0.35,-0.733 -0.302,-1.594 0.129,-2.281 0.433,-0.687 1.187,-1.101 1.998,-1.101 h 14.423 c 0.927,0 1.768,0.543 2.15,1.387 L -8,-17.502 H 41.782 L 57.454,-48.65 Z" style="fill:#ffffff;fill-opacity:1;fill-rule:nonzero;stroke:none" id="path64"/>
        </g>
      </g>
    </g>
  </g>
</svg>