<?xml version="1.0" encoding="UTF-8"?>
<svg id="uuid-cd939b38-9c51-44e2-969a-c00901ca97ed" data-name="Calque 1" xmlns="http://www.w3.org/2000/svg"
     viewBox="0 0 95.43 34.27">
    <path d="m95.43,11.57c-1.9.01-2.49,3.87-3.23,7.62-.25,1.28-.9,4.54-1.42,5.22-.14-.26-.39-.89-.67-2.33-.37-1.85-.67-4.38-.96-6.83-.93-7.84-1.45-10.8-3.25-10.8-1.16,0-1.74,1.3-2.28,5.14-.38,2.65-.68,6.23-.98,9.73-.28,3.28-.57,6.66-.91,9.22-.24,1.77-.47,2.79-.63,3.37-.15-.48-.35-1.28-.56-2.59-.35-2.14-.63-4.98-.92-7.82-.96-9.52-1.42-12.6-3.25-12.6s-2.39,3.09-3.25,9c-.29,2.01-.59,4.09-.95,5.6-.21.86-.39,1.35-.52,1.63-.15-.36-.37-1.06-.62-2.38-.36-1.93-.65-4.53-.94-7.04-.93-8.17-1.45-11.25-3.25-11.25s-2.38,3.22-3.25,9.94c-.29,2.22-.59,4.51-.95,6.18-.27,1.26-.51,1.82-.65,2.06-.55-.71-1.19-3.94-1.45-5.22-.74-3.76-1.33-6.73-3.24-6.73s-2.37,3.07-3.25,9.45c-.29,2.12-.59,4.31-.95,5.9-.18.8-.35,1.3-.47,1.61-.17-.54-.43-1.58-.69-3.56-.35-2.57-.64-5.97-.91-9.25-.29-3.46-.6-7.04-.97-9.7-.54-3.84-1.12-5.14-2.28-5.14-1.83,0-2.3,3.3-3.25,13.49-.28,2.98-.57,6.07-.92,8.39-.26,1.76-.51,2.68-.66,3.14-.13-.31-.31-.82-.5-1.66-.36-1.59-.66-3.79-.95-5.91-.88-6.38-1.38-9.45-3.25-9.45s-2.31,3.15-3.25,12.18c-.28,2.68-.57,5.45-.92,7.52-.22,1.28-.42,2.04-.56,2.49-.17-.53-.39-1.48-.63-3.13-.35-2.4-.64-5.59-.92-8.67-.96-10.54-1.42-13.94-3.25-13.94s-2.29,3.08-3.25,12.63c-.28,2.77-.57,5.64-.92,7.79-.24,1.51-.47,2.35-.63,2.8-.14-.34-.32-.92-.52-1.89-.37-1.76-.67-4.18-.96-6.52-.87-6.99-1.37-10.35-3.25-10.35s-2.37,3.07-3.25,9.45c-.29,2.12-.59,4.31-.95,5.91-.21.9-.39,1.42-.53,1.72-.15-.39-.38-1.14-.63-2.54-.35-2.01-.65-4.69-.93-7.28-.95-8.67-1.44-11.7-3.25-11.7s-2.32,2.96-3.25,10.82c-.29,2.44-.59,4.97-.96,6.81-.26,1.32-.49,1.96-.64,2.25-.12-.19-.3-.55-.51-1.23-.36-1.16-.66-2.79-.94-4.36-.74-4.02-1.32-7.19-3.24-7.19-.03,0-.06,0-.09,0v1.73s0,0,0,0c.01,0,.29.18.67,1.43.36,1.16.66,2.79.94,4.36.74,4.01,1.32,7.18,3.24,7.18,1.8,0,2.32-2.96,3.25-10.8.29-2.45.59-4.98.96-6.83.21-1.07.4-1.69.54-2.05.15.41.37,1.15.6,2.48.35,2,.65,4.69.93,7.28.95,8.67,1.44,11.7,3.25,11.7s2.37-3.07,3.25-9.47c.29-2.11.59-4.3.95-5.89.22-.95.41-1.48.55-1.76.14.32.35.92.58,2.03.37,1.77.67,4.19.96,6.52.87,6.99,1.37,10.35,3.25,10.35s2.29-3.08,3.25-12.63c.28-2.77.57-5.64.92-7.79.22-1.35.42-2.16.57-2.63.17.54.39,1.48.62,3.11.35,2.4.64,5.59.92,8.67.95,10.54,1.42,13.94,3.25,13.94s2.31-3.15,3.25-12.15c.28-2.69.57-5.46.92-7.55.25-1.49.48-2.28.64-2.7.13.3.32.82.52,1.7.36,1.59.66,3.77.95,5.9.88,6.39,1.38,9.45,3.25,9.45s2.29-3.3,3.25-13.5c.28-2.98.57-6.06.92-8.38.22-1.45.42-2.33.58-2.86.17.59.39,1.6.62,3.33.35,2.56.63,5.95.92,9.26.29,3.46.6,7.04.97,9.69.54,3.84,1.12,5.14,2.28,5.14,1.87,0,2.37-3.07,3.25-9.45.29-2.11.59-4.3.95-5.9.27-1.19.51-1.72.64-1.94.56.69,1.2,3.95,1.45,5.23.74,3.76,1.33,6.73,3.24,6.73s2.38-3.22,3.25-9.94c.29-2.22.59-4.51.95-6.17.21-.97.4-1.53.54-1.84.15.37.37,1.06.6,2.34.36,1.93.65,4.53.94,7.04.93,8.17,1.45,11.25,3.25,11.25s2.39-3.09,3.25-9c.29-2.01.59-4.09.95-5.6.2-.81.37-1.29.5-1.58.16.43.4,1.27.66,2.87.35,2.16.64,5.04.92,7.82.96,9.52,1.42,12.6,3.25,12.6,1.16,0,1.74-1.3,2.28-5.14.38-2.66.68-6.24.97-9.7.28-3.28.57-6.68.91-9.25.26-1.89.5-2.92.66-3.48.14.37.31.97.5,1.92.37,1.85.67,4.38.96,6.83.93,7.84,1.45,10.8,3.25,10.8,1.91,0,2.5-2.97,3.24-6.74.27-1.36.98-5.86,1.52-6.2v-1.75Z"/>
</svg>